<svg width="226" height="51" viewBox="0 0 226 51" fill="none" xmlns="http://www.w3.org/2000/svg">
<path fill-rule="evenodd" clip-rule="evenodd" d="M5.74284 16.6901L1.26515 21.0121C-0.36426 22.5849 -0.364262 25.1954 1.26514 26.7682L5.74284 31.0902V37.4C5.74284 39.6091 7.5337 41.4 9.74284 41.4H16.4241L21.1458 45.9576C22.6957 47.4535 25.1519 47.4535 26.7017 45.9576L31.4235 41.4H38.211C40.4201 41.4 42.211 39.6091 42.211 37.4V30.9876L46.7289 26.6268C48.3583 25.054 48.3583 22.4435 46.7289 20.8707L42.211 16.5099V10.4C42.211 8.19086 40.4201 6.4 38.211 6.4H31.7369L26.8482 1.68135C25.2984 0.18538 22.8422 0.185379 21.2924 1.68135L16.4037 6.4H9.74284C7.5337 6.4 5.74284 8.19086 5.74284 10.4V16.6901ZM5.74284 16.6901V31.0902L16.4241 41.4H31.4235L42.211 30.9876V16.5099L31.7369 6.4H16.4037L5.74284 16.6901Z" fill="#076AFD"/>
<path d="M35.4727 15.2969V34.7109C34.0143 35.8047 32.1458 36.3516 29.8672 36.3516C28.1094 36.3516 26.7161 35.9935 25.6875 35.2773C24.6068 34.5482 24.0664 33.4935 24.0664 32.1133V28.2461H25.4531C25.987 28.2461 26.319 28.181 26.4492 28.0508C26.5924 27.9076 26.6641 27.6797 26.6641 27.3672H20.5312C20.5312 27.6797 20.5898 27.9076 20.707 28.0508C20.8242 28.181 21.1042 28.2461 21.5469 28.2461H23.0312V34.7109C22.0286 35.362 21.0781 35.7982 20.1797 36.0195C19.2812 36.2409 18.3633 36.3516 17.4258 36.3516C15.668 36.3516 14.2747 35.9935 13.2461 35.2773C12.1654 34.5482 11.625 33.4935 11.625 32.1133V12.6797C12.3021 11.9635 13.1354 11.4167 14.125 11.0391C15.1276 10.6484 16.1693 10.4531 17.25 10.4531C18.8255 10.4531 20.1602 10.8438 21.2539 11.625C22.4388 12.5104 23.0312 13.7344 23.0312 15.2969V18.7734H25.5117C25.5117 18.4349 25.4466 18.207 25.3164 18.0898C25.1992 17.9596 25.0039 17.8945 24.7305 17.8945H24.0664V12.6797C24.7435 11.9635 25.5768 11.4167 26.5664 11.0391C27.569 10.6484 28.6107 10.4531 29.6914 10.4531C31.2669 10.4531 32.6016 10.8438 33.6953 11.625C34.8802 12.5104 35.4727 13.7344 35.4727 15.2969Z" fill="#E9B949"/>
<path d="M55.5 29V0.999998H61.16V12.04H70.76V0.999998H76.4V29H70.76V17.7H61.16V29H55.5ZM58.2 26.34H58.46V14.96H73.48V26.34H73.74V3.64H73.48V14.68H58.46V3.64H58.2V26.34ZM84.9984 29V5.12L89.1184 0.999998H102.038L106.158 5.12V29H100.518V20.76H90.6384V29H84.9984ZM87.7384 26.2H87.9984V18.14H103.258V26.2H103.518V6.28L100.838 3.6H90.4184L87.7384 6.28V26.2ZM90.6384 15.12H100.518V7.88L99.2984 6.66H91.8584L90.6384 7.88V15.12ZM87.9984 17.88V6.36L90.5184 3.86H100.738L103.258 6.36V17.88H87.9984ZM118.661 29L114.541 24.88V5.12L118.661 0.999998H131.381L135.501 5.12V10.16H129.861V7.88L128.641 6.66H121.381L120.181 7.92V22.14L121.381 23.34H128.641L129.861 22.12V19.36H124.321V13.72H135.501V24.88L131.381 29H118.661ZM120.101 26.26H129.981L132.821 23.42V16.46H127.101V16.74H132.541V23.34L129.881 25.98H120.201L117.541 23.34V6.5L120.141 3.92H129.981L132.541 6.5V7.66H132.821V6.42L130.081 3.64H120.041L117.261 6.42V23.42L120.101 26.26ZM148.008 29L143.888 24.88V5.12L148.008 0.999998H161.288L165.408 5.12V24.88L161.288 29H148.008ZM150.768 23.34H158.528L159.748 22.12V7.88L158.528 6.66H150.768L149.548 7.88V22.12L150.768 23.34ZM149.428 26.26H159.928L162.708 23.48V6.42L159.928 3.64H149.428L146.648 6.42V23.48L149.428 26.26ZM149.528 25.98L146.928 23.4V6.5L149.528 3.92H159.828L162.428 6.5V23.4L159.828 25.98H149.528ZM177.94 29L173.82 24.88V0.999998H179.48V22.12L180.7 23.34H188.9L190.12 22.12V0.999998H195.78V24.88L191.66 29H177.94ZM179.3 26.3H190.32L193.1 23.6V3.64H192.82V23.52L190.22 26.02H179.4L176.78 23.5V3.64H176.5V23.58L179.3 26.3ZM204.183 29V5.12L208.303 0.999998H221.223L225.343 5.12V29H219.703V20.76H209.823V29H204.183ZM206.923 26.2H207.183V18.14H222.443V26.2H222.703V6.28L220.023 3.6H209.603L206.923 6.28V26.2ZM209.823 15.12H219.703V7.88L218.483 6.66H211.043L209.823 7.88V15.12ZM207.183 17.88V6.36L209.703 3.86H219.923L222.443 6.36V17.88H207.183Z" fill="#E9B949"/>
<path d="M68.1143 38.3838V46H54.3857V42.1543H56.1045V32.6904H54.3857V28.9092H63.3125V32.6904H61.6045V42.1543H64.3545L65.3857 38.3838H68.1143ZM83.0012 46.1934C81.6978 46.1934 80.5627 45.9535 79.5959 45.4736C78.6148 45.001 77.8521 44.3063 77.3078 43.3896C76.7636 42.473 76.4914 41.3844 76.4914 40.124C76.4914 38.8708 76.7636 37.8073 77.3078 36.9336C77.8521 36.0527 78.6148 35.3903 79.5959 34.9463C80.5771 34.4951 81.7121 34.2695 83.0012 34.2695C84.3261 34.2695 85.4755 34.4987 86.4495 34.957C87.4306 35.4154 88.1897 36.0814 88.7268 36.9551C89.2639 37.8216 89.5325 38.8779 89.5325 40.124C89.5325 41.3844 89.2639 42.473 88.7268 43.3896C88.1825 44.3063 87.4162 45.0046 86.428 45.4844C85.4468 45.957 84.3046 46.1934 83.0012 46.1934ZM83.0012 43.0566C83.4739 43.0566 83.8248 42.8239 84.0539 42.3584C84.2759 41.9072 84.387 41.1624 84.387 40.124C84.387 39.1716 84.2759 38.4841 84.0539 38.0615C83.8391 37.6318 83.4882 37.417 83.0012 37.417C82.5357 37.417 82.192 37.6318 81.97 38.0615C81.748 38.4841 81.637 39.1716 81.637 40.124C81.637 41.141 81.7515 41.8857 81.9807 42.3584C82.2099 42.8239 82.55 43.0566 83.0012 43.0566ZM104.656 50.1787C103.123 50.1787 101.508 49.9603 99.811 49.5234V46.4189C100.763 46.7126 101.551 46.9346 102.174 47.085C102.797 47.2425 103.41 47.3213 104.011 47.3213C105.744 47.3213 106.611 46.4619 106.611 44.7432C106.217 45.0941 105.734 45.3913 105.161 45.6348C104.588 45.8783 103.94 46 103.216 46C102.178 46 101.301 45.7386 100.584 45.2158C99.8683 44.7002 99.3276 44.002 98.9624 43.1211C98.6043 42.2402 98.4253 41.2627 98.4253 40.1885C98.4253 39.0856 98.6079 38.0902 98.9731 37.2021C99.3384 36.307 99.879 35.5944 100.595 35.0645C101.318 34.5345 102.192 34.2695 103.216 34.2695C104.627 34.2695 105.759 34.8783 106.611 36.0957L107.384 34.4951H112.852V37.8145H111.821V44.5498C111.821 45.7887 111.524 46.8271 110.929 47.665C110.342 48.5029 109.511 49.1296 108.437 49.5449C107.363 49.9674 106.102 50.1787 104.656 50.1787ZM105.247 43.0566C105.583 43.0566 105.891 42.9528 106.17 42.7451C106.45 42.5374 106.618 42.3333 106.675 42.1328V38.2119C106.403 37.682 105.898 37.417 105.161 37.417C104.573 37.417 104.101 37.6712 103.743 38.1797C103.392 38.6882 103.216 39.3792 103.216 40.2529C103.216 41.0908 103.392 41.7676 103.743 42.2832C104.101 42.7988 104.602 43.0566 105.247 43.0566ZM125.773 33.3672C124.878 33.3672 124.14 33.1559 123.56 32.7334C122.98 32.3109 122.69 31.7021 122.69 30.9072C122.69 30.1123 122.98 29.5107 123.56 29.1025C124.14 28.6943 124.885 28.4902 125.795 28.4902C126.704 28.4902 127.442 28.6908 128.008 29.0918C128.58 29.4928 128.867 30.098 128.867 30.9072C128.867 31.7021 128.573 32.3109 127.986 32.7334C127.406 33.1559 126.668 33.3672 125.773 33.3672ZM129.726 42.7666V46H121.809V42.7666H123.195V37.8145H121.809V35.1719L128.341 34.4951V42.7666H129.726ZM144.613 46.1934C143.145 46.1934 141.845 45.8066 140.714 45.0332L140.359 46H138.361V41.7568H140.757C140.85 42.3011 141.104 42.7881 141.519 43.2178C141.935 43.6475 142.415 43.8623 142.959 43.8623C143.167 43.8623 143.346 43.805 143.496 43.6904C143.654 43.5758 143.732 43.3861 143.732 43.1211C143.732 42.8561 143.582 42.6162 143.281 42.4014C142.973 42.1794 142.515 41.9251 141.906 41.6387C141.169 41.2734 140.567 40.9404 140.102 40.6396C139.629 40.3389 139.221 39.945 138.877 39.458C138.533 38.9639 138.361 38.373 138.361 37.6855C138.361 36.9766 138.594 36.3607 139.06 35.8379C139.525 35.3223 140.137 34.932 140.896 34.667C141.656 34.402 142.483 34.2695 143.378 34.2695C144.545 34.2695 145.63 34.5775 146.633 35.1934L146.901 34.4951H148.685V37.9219H146.611C146.432 37.4564 146.174 37.0911 145.838 36.8262C145.501 36.5612 145.107 36.4287 144.656 36.4287C144.126 36.4287 143.861 36.597 143.861 36.9336C143.868 37.1628 144.008 37.3597 144.28 37.5244C144.552 37.682 144.993 37.8968 145.602 38.1689C145.981 38.3265 146.328 38.4841 146.644 38.6416C146.959 38.7992 147.241 38.9495 147.492 39.0928C147.993 39.3864 148.43 39.8018 148.803 40.3389C149.175 40.8688 149.361 41.5313 149.361 42.3262C149.361 43.1712 149.143 43.8802 148.706 44.4531C148.269 45.0332 147.689 45.4701 146.966 45.7637C146.242 46.0501 145.458 46.1934 144.613 46.1934ZM163.883 46.1934C161.126 46.1934 159.747 44.7575 159.747 41.8857V37.6426H158.029V34.4951H159.747V32.0352L164.893 30.8857V34.4951H166.955V37.6426H164.893V41.5098C164.893 41.832 165.015 42.1006 165.258 42.3154C165.501 42.5303 165.806 42.6377 166.171 42.6377C166.436 42.6377 166.697 42.6162 166.955 42.5732V45.5596C166.01 45.9821 164.986 46.1934 163.883 46.1934ZM180.08 33.3672C179.185 33.3672 178.448 33.1559 177.868 32.7334C177.288 32.3109 176.997 31.7021 176.997 30.9072C176.997 30.1123 177.288 29.5107 177.868 29.1025C178.448 28.6943 179.192 28.4902 180.102 28.4902C181.011 28.4902 181.749 28.6908 182.315 29.0918C182.888 29.4928 183.174 30.098 183.174 30.9072C183.174 31.7021 182.881 32.3109 182.293 32.7334C181.713 33.1559 180.976 33.3672 180.08 33.3672ZM184.034 42.7666V46H176.117V42.7666H177.502V37.8145H176.117V35.1719L182.648 34.4951V42.7666H184.034ZM199.2 46.1934C197.889 46.1934 196.747 45.9427 195.773 45.4414C194.792 44.9473 194.029 44.2454 193.485 43.3359C192.941 42.4264 192.669 41.3558 192.669 40.124C192.669 39.014 192.898 38.015 193.356 37.127C193.807 36.2389 194.452 35.5407 195.29 35.0322C196.135 34.5238 197.116 34.2695 198.233 34.2695C198.656 34.2695 199.103 34.3232 199.576 34.4307C200.049 34.5309 200.471 34.6813 200.843 34.8818C201.223 35.0824 201.474 35.333 201.595 35.6338L202.036 34.4951H204.378V39.2432H201.273C201.216 38.6702 201.048 38.2227 200.768 37.9004C200.489 37.5781 200.142 37.417 199.726 37.417C199.11 37.417 198.641 37.6139 198.319 38.0078C197.997 38.3945 197.836 39.1071 197.836 40.1455C197.836 40.8617 197.965 41.4274 198.222 41.8428C198.487 42.251 198.827 42.5446 199.243 42.7236C199.665 42.8955 200.113 42.9814 200.586 42.9814C201.101 42.9814 201.66 42.8919 202.261 42.7129C202.863 42.5267 203.396 42.2367 203.862 41.8428L204.023 41.9502V44.9473C204.023 44.9759 203.805 45.0977 203.368 45.3125C202.931 45.5345 202.351 45.7386 201.628 45.9248C200.904 46.1038 200.095 46.1934 199.2 46.1934ZM219.608 46.1934C218.14 46.1934 216.84 45.8066 215.709 45.0332L215.354 46H213.356V41.7568H215.752C215.845 42.3011 216.099 42.7881 216.515 43.2178C216.93 43.6475 217.41 43.8623 217.954 43.8623C218.162 43.8623 218.341 43.805 218.491 43.6904C218.649 43.5758 218.727 43.3861 218.727 43.1211C218.727 42.8561 218.577 42.6162 218.276 42.4014C217.968 42.1794 217.51 41.9251 216.901 41.6387C216.164 41.2734 215.562 40.9404 215.097 40.6396C214.624 40.3389 214.216 39.945 213.872 39.458C213.528 38.9639 213.356 38.373 213.356 37.6855C213.356 36.9766 213.589 36.3607 214.055 35.8379C214.52 35.3223 215.132 34.932 215.892 34.667C216.651 34.402 217.478 34.2695 218.373 34.2695C219.54 34.2695 220.625 34.5775 221.628 35.1934L221.896 34.4951H223.68V37.9219H221.606C221.427 37.4564 221.17 37.0911 220.833 36.8262C220.496 36.5612 220.102 36.4287 219.651 36.4287C219.121 36.4287 218.856 36.597 218.856 36.9336C218.864 37.1628 219.003 37.3597 219.275 37.5244C219.547 37.682 219.988 37.8968 220.597 38.1689C220.976 38.3265 221.323 38.4841 221.639 38.6416C221.954 38.7992 222.237 38.9495 222.487 39.0928C222.989 39.3864 223.425 39.8018 223.798 40.3389C224.17 40.8688 224.356 41.5313 224.356 42.3262C224.356 43.1712 224.138 43.8802 223.701 44.4531C223.264 45.0332 222.684 45.4701 221.961 45.7637C221.238 46.0501 220.453 46.1934 219.608 46.1934Z" fill="#076AFD"/>
</svg>
