<svg width="157" height="48" viewBox="0 0 157 48" fill="none" xmlns="http://www.w3.org/2000/svg">
<path fill-rule="evenodd" clip-rule="evenodd" d="M6.53742 16.7085L1.99507 21.0929C0.342138 22.6884 0.342138 25.3366 1.99507 26.9321L6.53742 31.3165V37.7174C6.53742 39.9584 8.35414 41.7752 10.5952 41.7752H17.3729L22.1628 46.3985C23.735 47.9161 26.2267 47.9161 27.7989 46.3985L32.5888 41.7752H39.4743C41.7154 41.7752 43.5321 39.9584 43.5321 37.7174V31.2124L48.1153 26.7886C49.7682 25.1932 49.7682 22.5449 48.1153 20.9495L43.5321 16.5257V10.3276C43.5321 8.08654 41.7154 6.26982 39.4743 6.26982H32.9068L27.9475 1.48304C26.3753 -0.0345281 23.8837 -0.0345279 22.3114 1.48304L17.3522 6.26982H10.5952C8.35414 6.26982 6.53742 8.08654 6.53742 10.3276V16.7085ZM6.53742 16.7085V31.3165L17.3729 41.7752H32.5888L43.5321 31.2124V16.5257L32.9068 6.26982H17.3522L6.53742 16.7085Z" fill="#076AFD"/>
<path d="M37.3981 15.498V35.1923C35.9187 36.3019 34.0232 36.8566 31.7117 36.8566C29.9285 36.8566 28.5151 36.4934 27.4716 35.7669C26.3753 35.0272 25.8271 33.9573 25.8271 32.5572V28.6341H27.2339C27.7754 28.6341 28.1123 28.5681 28.2444 28.436C28.3897 28.2907 28.4623 28.0596 28.4623 27.7425H22.2409C22.2409 28.0596 22.3004 28.2907 22.4193 28.436C22.5381 28.5681 22.8221 28.6341 23.2712 28.6341H24.777V35.1923C23.76 35.8528 22.7957 36.2953 21.8843 36.5198C20.9729 36.7444 20.0417 36.8566 19.0906 36.8566C17.3074 36.8566 15.8941 36.4934 14.8506 35.7669C13.7543 35.0272 13.2061 33.9573 13.2061 32.5572V12.843C13.893 12.1165 14.7383 11.5617 15.7422 11.1787C16.7593 10.7824 17.816 10.5843 18.9123 10.5843C20.5106 10.5843 21.8645 10.9805 22.974 11.7731C24.176 12.6713 24.777 13.9129 24.777 15.498V19.0247H27.2933C27.2933 18.6813 27.2273 18.4501 27.0952 18.3313C26.9763 18.1992 26.7782 18.1331 26.5008 18.1331H25.8271V12.843C26.514 12.1165 27.3594 11.5617 28.3632 11.1787C29.3803 10.7824 30.437 10.5843 31.5334 10.5843C33.1316 10.5843 34.4855 10.9805 35.5951 11.7731C36.7971 12.6713 37.3981 13.9129 37.3981 15.498Z" fill="#E9B949"/>
<path d="M52.5754 19.4072V2.4728H55.9986V9.14979H61.8046V2.4728H65.2157V19.4072H61.8046V12.573H55.9986V19.4072H52.5754ZM54.2084 17.7984H54.3656V10.9158H63.4497V17.7984H63.607V4.06947H63.4497V10.7465H54.3656V4.06947H54.2084V17.7984ZM70.4161 19.4072V4.96457L72.9078 2.4728H80.7218L83.2136 4.96457V19.4072H79.8026V14.4236H73.8271V19.4072H70.4161ZM72.0732 17.7138H72.2305V12.8391H81.4597V17.7138H81.617V5.66614L79.9961 4.04528H73.6941L72.0732 5.66614V17.7138ZM73.8271 11.0126H79.8026V6.63382L79.0647 5.89596H74.565L73.8271 6.63382V11.0126ZM72.2305 12.6818V5.71452L73.7546 4.20252H79.9356L81.4597 5.71452V12.6818H72.2305ZM90.7749 19.4072L88.2832 16.9154V4.96457L90.7749 2.4728H98.468L100.96 4.96457V8.01276H97.5487V6.63382L96.8108 5.89596H92.42L91.6942 6.65801V15.2583L92.42 15.984H96.8108L97.5487 15.2462V13.5769H94.1981V10.1659H100.96V16.9154L98.468 19.4072H90.7749ZM91.6459 17.75H97.6213L99.3389 16.0324V11.823H95.8795V11.9923H99.1696V15.984L97.5608 17.5807H91.7063L90.0976 15.984V5.7992L91.67 4.23881H97.6213L99.1696 5.7992V6.50076H99.3389V5.75081L97.6818 4.06947H91.6096L89.9282 5.75081V16.0324L91.6459 17.75ZM108.524 19.4072L106.032 16.9154V4.96457L108.524 2.4728H116.556L119.047 4.96457V16.9154L116.556 19.4072H108.524ZM110.193 15.984H114.886L115.624 15.2462V6.63382L114.886 5.89596H110.193L109.455 6.63382V15.2462L110.193 15.984ZM109.383 17.75H115.733L117.414 16.0687V5.75081L115.733 4.06947H109.383L107.701 5.75081V16.0687L109.383 17.75ZM109.443 17.5807L107.871 16.0203V5.7992L109.443 4.23881H115.673L117.245 5.7992V16.0203L115.673 17.5807H109.443ZM126.627 19.4072L124.136 16.9154V2.4728H127.559V15.2462L128.297 15.984H133.256L133.994 15.2462V2.4728H137.417V16.9154L134.925 19.4072H126.627ZM127.45 17.7742H134.115L135.796 16.1413V4.06947H135.627V16.0929L134.054 17.6049H127.51L125.926 16.0808V4.06947H125.756V16.1292L127.45 17.7742ZM142.499 19.4072V4.96457L144.991 2.4728H152.805L155.296 4.96457V19.4072H151.885V14.4236H145.91V19.4072H142.499ZM144.156 17.7138H144.313V12.8391H153.542V17.7138H153.7V5.66614L152.079 4.04528H145.777L144.156 5.66614V17.7138ZM145.91 11.0126H151.885V6.63382L151.147 5.89596H146.648L145.91 6.63382V11.0126ZM144.313 12.6818V5.71452L145.837 4.20252H152.018L153.542 5.71452V12.6818H144.313Z" fill="#E9B949"/>
<path fill-rule="evenodd" clip-rule="evenodd" d="M156.903 22.204C156.903 21.5359 156.362 20.9944 155.694 20.9944H52.273C51.605 20.9944 51.0634 21.5359 51.0634 22.204V43.9768C51.0634 44.6448 51.605 45.1864 52.273 45.1864H155.694C156.362 45.1864 156.903 44.6448 156.903 43.9768V22.204ZM61.7856 36.6609C62.4536 36.6609 62.9952 36.1193 62.9952 35.4513V32.9905C62.9952 32.4736 62.5762 32.0546 62.0593 32.0546V32.0546C61.6375 32.0546 61.2678 32.3367 61.1566 32.7436L60.9112 33.6406C60.7991 34.0506 60.4265 34.335 60.0014 34.335V34.335C59.4804 34.335 59.0581 33.9127 59.0581 33.3917V29.1277C59.0581 28.8425 59.2893 28.6112 59.5746 28.6112V28.6112C59.8599 28.6112 60.0911 28.38 60.0911 28.0947V27.4678C60.0911 26.8363 59.5792 26.3243 58.9477 26.3243H55.8357C55.2041 26.3243 54.6922 26.8363 54.6922 27.4678V28.0915C54.6922 28.3785 54.9249 28.6112 55.212 28.6112V28.6112C55.499 28.6112 55.7317 28.8439 55.7317 29.131V33.8152C55.7317 34.1023 55.499 34.335 55.212 34.335V34.335C54.9249 34.335 54.6922 34.5677 54.6922 34.8547V35.4979C54.6922 36.1402 55.2129 36.6609 55.8551 36.6609H61.7856ZM69.141 36.3425C69.7257 36.6327 70.4122 36.7778 71.2005 36.7778C71.9888 36.7778 72.6796 36.6349 73.273 36.349C73.8707 36.0588 74.3342 35.6365 74.6633 35.0821C74.9882 34.5277 75.1506 33.8694 75.1506 33.1071C75.1506 32.3534 74.9882 31.7146 74.6633 31.1905C74.3385 30.6621 73.8794 30.2593 73.286 29.9821C72.6969 29.7049 72.0018 29.5663 71.2005 29.5663C70.4209 29.5663 69.7344 29.7027 69.141 29.9756C68.5476 30.2441 68.0863 30.6448 67.7572 31.1775C67.428 31.7059 67.2634 32.3491 67.2634 33.1071C67.2634 33.8694 67.428 34.5277 67.7572 35.0821C68.0863 35.6365 68.5476 36.0567 69.141 36.3425ZM71.8372 34.4584C71.6986 34.74 71.4864 34.8807 71.2005 34.8807C70.9276 34.8807 70.7219 34.74 70.5833 34.4584C70.4447 34.1726 70.3754 33.7221 70.3754 33.1071C70.3754 32.531 70.4425 32.1152 70.5768 31.8597C70.7111 31.5998 70.919 31.4699 71.2005 31.4699C71.495 31.4699 71.7073 31.5998 71.8372 31.8597C71.9715 32.1152 72.0386 32.531 72.0386 33.1071C72.0386 33.7351 71.9715 34.1856 71.8372 34.4584ZM80.5687 38.1085C80.5687 38.5107 80.8404 38.8651 81.2344 38.9461C82.0196 39.1075 82.7744 39.1882 83.4988 39.1882C84.3737 39.1882 85.136 39.0604 85.7857 38.8048C86.4354 38.5536 86.9378 38.1746 87.293 37.6679C87.6525 37.1611 87.8322 36.5331 87.8322 35.7838V32.0221C87.8322 31.8499 87.9719 31.7103 88.1441 31.7103V31.7103C88.3163 31.7103 88.4559 31.5706 88.4559 31.3984V30.7065C88.4559 30.1521 88.0065 29.7027 87.4522 29.7027H85.4382C85.2614 29.7027 85.1001 29.8039 85.0232 29.9631V29.9631C84.87 30.2801 84.4254 30.3151 84.1531 30.092C83.7252 29.7415 83.2169 29.5663 82.6282 29.5663C82.0089 29.5663 81.4805 29.7265 81.043 30.0471C80.6099 30.3676 80.2829 30.7985 80.062 31.3399C79.8411 31.877 79.7306 32.479 79.7306 33.1461C79.7306 33.7957 79.8389 34.387 80.0555 34.9197C80.2764 35.4525 80.6034 35.8747 81.0365 36.1866C81.4696 36.5028 82.0002 36.6609 82.6282 36.6609C83.0657 36.6609 83.4577 36.5872 83.8042 36.44V36.44C84.1726 36.2834 84.6557 36.5563 84.4352 36.8904C84.1846 37.2701 83.7425 37.46 83.109 37.46C82.7452 37.46 82.3749 37.4123 81.998 37.3171C81.9095 37.2957 81.8155 37.2719 81.716 37.2458C81.1422 37.095 80.5687 37.5152 80.5687 38.1085V38.1085ZM84.4149 34.6923C84.246 34.8179 84.0597 34.8807 83.8562 34.8807C83.4663 34.8807 83.1632 34.7248 82.9466 34.413C82.7344 34.1011 82.6282 33.6918 82.6282 33.185C82.6282 32.6566 82.7344 32.2387 82.9466 31.9311C83.1632 31.6236 83.449 31.4699 83.8042 31.4699C84.124 31.4699 84.3716 31.5523 84.5467 31.717C84.6867 31.8487 84.7202 32.0509 84.7202 32.2431V34.1526C84.7202 34.265 84.71 34.3814 84.6438 34.4722C84.5909 34.5448 84.5146 34.6182 84.4149 34.6923ZM94.1339 28.6372C94.4848 28.8928 94.9309 29.0205 95.4723 29.0205C96.0137 29.0205 96.4598 28.8928 96.8107 28.6372C97.1658 28.3817 97.3434 28.0135 97.3434 27.5328C97.3434 27.0433 97.1702 26.6773 96.8237 26.4348C96.4815 26.1922 96.0354 26.071 95.4853 26.071C94.9352 26.071 94.4848 26.1944 94.1339 26.4413C93.7831 26.6882 93.6077 27.052 93.6077 27.5328C93.6077 28.0135 93.7831 28.3817 94.1339 28.6372ZM96.8854 36.6609C97.4254 36.6609 97.8632 36.2231 97.8632 35.6831V35.1244C97.8632 34.8929 97.6755 34.7053 97.4441 34.7053V34.7053C97.2127 34.7053 97.0251 34.5177 97.0251 34.2863V31.0441C97.0251 30.3268 96.4043 29.767 95.6908 29.841L93.8287 30.0339C93.4004 30.0783 93.075 30.4392 93.075 30.8698V31.2912C93.075 31.5226 93.2626 31.7103 93.494 31.7103V31.7103C93.7254 31.7103 93.9131 31.8979 93.9131 32.1293V34.2863C93.9131 34.5177 93.7254 34.7053 93.494 34.7053V34.7053C93.2626 34.7053 93.075 34.8929 93.075 35.1244V35.6831C93.075 36.2231 93.5127 36.6609 94.0527 36.6609H96.8854ZM103.571 36.455C103.642 36.2628 103.874 36.1889 104.054 36.2869C104.654 36.6142 105.326 36.7778 106.068 36.7778C106.58 36.7778 107.054 36.6912 107.491 36.5179C107.929 36.3404 108.28 36.0762 108.544 35.7253C108.808 35.3788 108.94 34.95 108.94 34.4389C108.94 33.9582 108.827 33.5575 108.602 33.237C108.377 32.9122 108.113 32.661 107.81 32.4834C107.658 32.3968 107.487 32.3058 107.296 32.2105C107.106 32.1152 106.896 32.0199 106.666 31.9246C106.298 31.7601 106.032 31.6301 105.867 31.5348C105.702 31.4352 105.618 31.3161 105.614 31.1775C105.614 30.9739 105.774 30.8722 106.094 30.8722C106.367 30.8722 106.606 30.9523 106.809 31.1125C106.89 31.176 106.963 31.249 107.028 31.3314C107.22 31.572 107.48 31.7752 107.787 31.7752V31.7752C108.198 31.7752 108.531 31.4424 108.531 31.0319V30.3421C108.531 29.989 108.245 29.7027 107.891 29.7027H107.617C107.518 29.7027 107.429 29.7637 107.393 29.8562V29.8562C107.339 29.996 107.172 30.0521 107.039 29.9831C106.504 29.7052 105.931 29.5663 105.321 29.5663C104.78 29.5663 104.28 29.6464 103.821 29.8067C103.361 29.9669 102.991 30.203 102.71 30.5148C102.428 30.831 102.287 31.2035 102.287 31.6323C102.287 32.0481 102.391 32.4054 102.599 32.7043C102.807 32.9988 103.054 33.237 103.34 33.4189C103.621 33.6008 103.985 33.8022 104.431 34.0231C104.799 34.1964 105.077 34.3501 105.263 34.4844C105.445 34.6144 105.536 34.7595 105.536 34.9197C105.536 35.08 105.488 35.1947 105.393 35.264C105.302 35.3333 105.194 35.368 105.068 35.368C104.739 35.368 104.449 35.2381 104.197 34.9782C104.114 34.8915 104.041 34.8009 103.978 34.7065C103.768 34.3866 103.456 34.0946 103.073 34.0946V34.0946C102.639 34.0946 102.287 34.4465 102.287 34.8805V35.9494C102.287 36.3423 102.606 36.6609 102.999 36.6609H103.276C103.408 36.6609 103.526 36.5786 103.571 36.455V36.455ZM114.423 34.1726C114.423 35.9094 115.257 36.7778 116.924 36.7778C117.364 36.7778 117.783 36.7224 118.181 36.6114C118.556 36.5069 118.783 36.1437 118.783 35.7542V35.0648C118.783 34.8154 118.558 34.6273 118.308 34.6273V34.6273C118.087 34.6273 117.903 34.5624 117.756 34.4324C117.609 34.3025 117.535 34.1401 117.535 33.9452V32.23C117.535 31.8855 117.814 31.6063 118.159 31.6063V31.6063C118.503 31.6063 118.783 31.3271 118.783 30.9826V30.3264C118.783 29.982 118.503 29.7027 118.159 29.7027V29.7027C117.814 29.7027 117.535 29.4235 117.535 29.079V28.7317C117.535 28.11 116.959 27.6484 116.352 27.784L115.069 28.0707C114.692 28.155 114.423 28.49 114.423 28.8767V29.183C114.423 29.47 114.19 29.7027 113.903 29.7027V29.7027C113.616 29.7027 113.384 29.9354 113.384 30.2225V31.0865C113.384 31.3736 113.616 31.6063 113.903 31.6063V31.6063C114.19 31.6063 114.423 31.839 114.423 32.1261V34.1726ZM124.584 28.6372C124.935 28.8928 125.381 29.0205 125.922 29.0205C126.464 29.0205 126.91 28.8928 127.261 28.6372C127.616 28.3817 127.793 28.0135 127.793 27.5328C127.793 27.0433 127.62 26.6773 127.274 26.4348C126.932 26.1922 126.485 26.071 125.935 26.071C125.385 26.071 124.935 26.1944 124.584 26.4413C124.233 26.6882 124.058 27.052 124.058 27.5328C124.058 28.0135 124.233 28.3817 124.584 28.6372ZM127.335 36.6609C127.875 36.6609 128.313 36.2231 128.313 35.6831V35.1244C128.313 34.8929 128.126 34.7053 127.894 34.7053V34.7053C127.663 34.7053 127.475 34.5177 127.475 34.2863V31.0441C127.475 30.3268 126.854 29.767 126.141 29.841L124.279 30.0339C123.851 30.0783 123.525 30.4392 123.525 30.8698V31.2912C123.525 31.5226 123.713 31.7103 123.944 31.7103V31.7103C124.176 31.7103 124.363 31.8979 124.363 32.1293V34.2863C124.363 34.5177 124.176 34.7053 123.944 34.7053V34.7053C123.713 34.7053 123.525 34.8929 123.525 35.1244V35.6831C123.525 36.2231 123.963 36.6609 124.503 36.6609H127.335ZM134.615 36.323C135.204 36.6262 135.895 36.7778 136.687 36.7778C137.229 36.7778 137.718 36.7237 138.156 36.6154C138.593 36.5028 138.944 36.3793 139.208 36.2451C139.472 36.1151 139.605 36.0415 139.605 36.0242V34.2602C139.605 34.2298 139.589 34.2014 139.564 34.1845V34.1845C139.53 34.1621 139.486 34.1647 139.454 34.1901C139.185 34.4063 138.88 34.5672 138.539 34.6728C138.175 34.7811 137.837 34.8352 137.526 34.8352C137.24 34.8352 136.969 34.7833 136.713 34.6793C136.462 34.571 136.256 34.3935 136.096 34.1466C135.94 33.8954 135.862 33.5532 135.862 33.1201C135.862 32.492 135.96 32.0611 136.155 31.8272C136.35 31.589 136.633 31.4699 137.006 31.4699C137.257 31.4699 137.467 31.5673 137.636 31.7622V31.7622C137.964 32.1404 138.327 32.5743 138.828 32.5743V32.5743C139.372 32.5743 139.819 32.1331 139.819 31.5887V30.5431C139.819 30.079 139.443 29.7027 138.979 29.7027H138.56C138.465 29.7027 138.38 29.7611 138.346 29.8497V29.8497C138.271 30.044 137.927 30.0802 137.748 29.9737C137.726 29.961 137.704 29.9487 137.681 29.9366C137.456 29.8153 137.201 29.7244 136.915 29.6637C136.629 29.5988 136.358 29.5663 136.103 29.5663C135.427 29.5663 134.834 29.72 134.323 30.0276C133.816 30.3351 133.426 30.7574 133.153 31.2945C132.876 31.8315 132.737 32.4357 132.737 33.1071C132.737 33.8521 132.902 34.4996 133.231 35.0496C133.56 35.5997 134.022 36.0242 134.615 36.323ZM145.735 36.455C145.805 36.2628 146.038 36.1889 146.218 36.2869C146.818 36.6142 147.489 36.7778 148.232 36.7778C148.743 36.7778 149.217 36.6912 149.655 36.5179C150.092 36.3404 150.443 36.0762 150.707 35.7253C150.972 35.3788 151.104 34.95 151.104 34.4389C151.104 33.9582 150.991 33.5575 150.766 33.237C150.541 32.9122 150.276 32.661 149.973 32.4834C149.822 32.3968 149.651 32.3058 149.46 32.2105C149.269 32.1152 149.059 32.0199 148.83 31.9246C148.462 31.7601 148.195 31.6301 148.031 31.5348C147.866 31.4352 147.782 31.3161 147.777 31.1775C147.777 30.9739 147.938 30.8722 148.258 30.8722C148.531 30.8722 148.769 30.9523 148.973 31.1125C149.053 31.176 149.127 31.249 149.192 31.3314C149.384 31.572 149.644 31.7752 149.951 31.7752V31.7752C150.362 31.7752 150.694 31.4424 150.694 31.0319V30.3421C150.694 29.989 150.408 29.7027 150.055 29.7027H149.78C149.681 29.7027 149.592 29.7637 149.557 29.8562V29.8562C149.503 29.996 149.336 30.0521 149.203 29.9831C148.667 29.7052 148.095 29.5663 147.485 29.5663C146.944 29.5663 146.443 29.6464 145.984 29.8067C145.525 29.9669 145.155 30.203 144.873 30.5148C144.592 30.831 144.451 31.2035 144.451 31.6323C144.451 32.0481 144.555 32.4054 144.763 32.7043C144.971 32.9988 145.218 33.237 145.503 33.4189C145.785 33.6008 146.149 33.8022 146.595 34.0231C146.963 34.1964 147.24 34.3501 147.427 34.4844C147.608 34.6144 147.699 34.7595 147.699 34.9197C147.699 35.08 147.652 35.1947 147.556 35.264C147.465 35.3333 147.357 35.368 147.232 35.368C146.902 35.368 146.612 35.2381 146.361 34.9782C146.277 34.8915 146.204 34.8009 146.142 34.7065C145.932 34.3866 145.62 34.0946 145.237 34.0946V34.0946C144.803 34.0946 144.451 34.4465 144.451 34.8805V35.9494C144.451 36.3423 144.769 36.6609 145.162 36.6609H145.44C145.572 36.6609 145.69 36.5786 145.735 36.455V36.455Z" fill="#076AFD"/>
</svg>
